<?xml version="1.0" encoding="utf-8"?>
<!-- Generator: Adobe Illustrator 25.2.3, SVG Export Plug-In . SVG Version: 6.00 Build 0)  -->
<svg version="1.1" id="Laag_1" xmlns="http://www.w3.org/2000/svg" xmlns:xlink="http://www.w3.org/1999/xlink" x="0px" y="0px"
	 viewBox="0 0 1860 480.15" style="enable-background:new 0 0 1860 480.15;" xml:space="preserve">
<style type="text/css">
	.st0{fill:#D75959;}
	.st1{fill:#00A59B;}
</style>
<path class="st0" d="M44.35,308.53v2.84c0,9.23,2.33,16.72,7.02,22.46c4.67,5.75,10.74,8.62,18.19,8.62
	c7.08,0,12.87-2.15,17.36-6.44c4.49-4.3,6.72-9.8,6.72-16.5c0-6.19-1.63-11.28-4.92-15.25c-3.29-3.99-9.17-8-17.64-12.04
	c-4.81-2.15-11.87-5.11-21.23-8.91c-9.36-3.79-15.36-6.76-18.01-8.92c-7.71-6.32-13.39-13.36-17.06-21.14
	c-3.67-7.77-5.5-16.64-5.5-26.63c0-17.56,6.16-32.42,18.49-44.55c12.3-12.13,27.25-18.2,44.81-18.2c18.59,0,33.28,5.38,44.08,16.12
	c10.81,10.74,16.71,25.78,17.73,45.12H90.8v-1.15c0-6.69-1.75-11.94-5.22-15.73c-3.47-3.79-8.31-5.69-14.5-5.69
	c-5.43,0-9.95,1.86-13.55,5.59c-3.61,3.73-5.4,8.38-5.4,13.94c0,9.09,9.36,17.56,28.05,25.4c4.93,2.02,8.72,3.6,11.38,4.74
	c17.93,8.08,30.2,16.78,36.77,26.06s9.86,21.84,9.86,37.63c0,19.46-6.57,35.54-19.72,48.24c-13.14,12.71-29.68,19.05-49.67,19.05
	c-20.09,0-36.29-6.69-48.61-20.1C7.86,349.73,1.13,331.6,0,308.72L44.35,308.53z"/>
<path class="st0" d="M218.38,101.72v91.18c7.08-9.48,15.19-16.5,24.35-21.05c9.16-4.55,19.63-6.83,31.38-6.83
	c26.03,0,45.99,8,59.9,23.98c13.89,15.99,20.85,39.02,20.85,69.1v119.61h-48.53v-91.94c0-28.56-3.19-47.93-9.57-58.1
	c-6.39-10.17-17.54-15.25-33.46-15.25c-16.17,0-27.79,5.72-34.87,17.15c-7.08,11.44-10.62,31.07-10.62,58.86v89.28h-46.83v-276
	H218.38z"/>
<path class="st0" d="M384.43,272.51c0-14.66,2.69-28.59,8.06-41.8c5.37-13.2,13.17-24.92,23.41-35.16
	c10.49-10.49,22.31-18.55,35.45-24.17c13.15-5.63,26.8-8.43,40.94-8.43c15.04,0,28.9,2.5,41.62,7.48c12.7,5,24.35,12.48,34.97,22.47
	c10.86,10.49,19.27,22.59,25.21,36.3c5.95,13.71,8.92,27.77,8.92,42.17c0,15.93-2.59,30.46-7.78,43.6
	c-5.19,13.15-12.96,25.03-23.32,35.64c-10.36,10.74-22.19,18.86-35.45,24.36c-13.27,5.49-27.68,8.24-43.23,8.24
	c-15.66,0-29.94-2.78-42.84-8.34c-12.88-5.56-24.64-13.9-35.25-25.03c-10.11-10.87-17.75-22.85-22.95-35.92
	C387.03,300.85,384.43,287.05,384.43,272.51z M434.49,272.13c0,19.34,5.31,34.67,15.91,45.97c10.62,11.31,25.02,16.97,43.23,16.97
	c17.93,0,32.26-5.78,42.93-17.35c10.68-11.56,16.01-27.14,16.01-46.72c0-17.57-5.59-32.01-16.77-43.32
	c-11.18-11.31-25.25-16.96-42.17-16.96c-17.44,0-31.66,5.72-42.65,17.15C439.98,239.31,434.49,254.07,434.49,272.13z"/>
<path class="st0" d="M677.87,361.04v84.17h-47.76V169.2h47.76v17.44c9.73-7.71,19.92-13.42,30.54-17.16
	c10.61-3.73,22.05-5.59,34.31-5.59c13.14,0,25.52,2.06,37.15,6.17c11.63,4.1,22.05,10.2,31.28,18.29
	c12.51,10.87,22.15,23.69,28.9,38.48c6.77,14.79,10.15,30.52,10.15,47.2c0,15.55-3.06,30.4-9.2,44.56
	c-6.11,14.15-14.81,26.34-26.05,36.58c-9.61,9.1-20.58,16.05-32.9,20.86c-12.32,4.8-25.3,7.2-38.96,7.2
	c-13.27,0-25.17-1.79-35.73-5.4C696.8,374.22,686.98,368.62,677.87,361.04z M679.77,272.51c0,17.82,5.75,32.7,17.26,44.65
	c11.49,11.94,25.71,17.91,42.65,17.91c16.68,0,30.94-6.07,42.75-18.2c11.82-12.13,17.73-26.66,17.73-43.6
	c0-17.57-5.95-32.16-17.82-43.79c-11.88-11.62-26.85-17.44-44.93-17.44c-15.93,0-29.5,5.85-40.77,17.53
	C685.4,241.27,679.77,255.58,679.77,272.51z"/>
<path class="st1" d="M927.92,185.88c8.96-7.46,18.7-12.92,29.19-16.4c10.49-3.47,22.49-5.21,36.01-5.21
	c13.91,0,26.99,2.35,39.25,7.02c12.26,4.67,23.13,11.5,32.61,20.47c11.24,10.36,19.93,22.59,26.06,36.68s9.19,28.91,9.19,44.45
	c0,16.68-3.38,32.45-10.14,47.29c-6.77,14.86-16.4,27.71-28.9,38.57c-9.23,7.97-19.66,14.03-31.29,18.2
	c-11.63,4.17-24.01,6.26-37.15,6.26c-12.39,0-23.89-1.86-34.5-5.59c-10.61-3.73-20.73-9.38-30.33-16.97v17.06h-47.77v-276h47.77
	V185.88z M929.82,274.41c0,16.94,5.61,31.28,16.85,43.04c11.26,11.75,24.84,17.63,40.77,17.63c18.07,0,33.04-5.84,44.93-17.54
	c11.87-11.69,17.82-26.31,17.82-43.88c0-16.81-5.91-31.28-17.73-43.41c-11.81-12.13-26.07-18.2-42.75-18.2
	c-16.94,0-31.15,5.97-42.64,17.92C935.57,241.9,929.82,256.72,929.82,274.41z"/>
<path class="st1" d="M1120.89,272.51c0-14.66,2.67-28.59,8.05-41.8c5.37-13.2,13.18-24.92,23.41-35.16
	c10.49-10.49,22.3-18.55,35.45-24.17c13.14-5.63,26.8-8.43,40.95-8.43c15.05,0,28.9,2.5,41.61,7.48c12.71,5,24.36,12.48,34.97,22.47
	c10.87,10.49,19.27,22.59,25.22,36.3c5.94,13.71,8.91,27.77,8.91,42.17c0,15.93-2.58,30.46-7.78,43.6
	c-5.18,13.15-12.95,25.03-23.32,35.64c-10.35,10.74-22.18,18.86-35.44,24.36c-13.27,5.49-27.69,8.24-43.23,8.24
	c-15.67,0-29.96-2.78-42.83-8.34c-12.9-5.56-24.65-13.9-35.27-25.03c-10.12-10.87-17.75-22.85-22.94-35.92
	C1123.47,300.85,1120.89,287.05,1120.89,272.51z M1170.93,272.13c0,19.34,5.31,34.67,15.93,45.97c10.6,11.31,25.01,16.97,43.2,16.97
	c17.95,0,32.26-5.78,42.95-17.35c10.67-11.56,16.01-27.14,16.01-46.72c0-17.57-5.6-32.01-16.77-43.32
	c-11.2-11.31-25.25-16.96-42.19-16.96c-17.42,0-31.65,5.72-42.65,17.15C1176.43,239.31,1170.93,254.07,1170.93,272.13z"/>
<path class="st1" d="M1638.02,308.53v2.84c0,9.23,2.34,16.72,7.02,22.46c4.68,5.75,10.74,8.62,18.2,8.62
	c7.09,0,12.86-2.15,17.35-6.44c4.49-4.3,6.73-9.8,6.73-16.5c0-6.19-1.64-11.28-4.92-15.25c-3.31-3.99-9.17-8-17.64-12.04
	c-4.81-2.15-11.88-5.11-21.24-8.91c-9.35-3.79-15.33-6.76-18.01-8.92c-7.7-6.32-13.38-13.36-17.06-21.14
	c-3.66-7.77-5.5-16.64-5.5-26.63c0-17.56,6.16-32.42,18.49-44.55c12.33-12.13,27.27-18.2,44.83-18.2c18.58,0,33.27,5.38,44.07,16.12
	c10.8,10.74,16.7,25.78,17.72,45.12h-43.6v-1.15c0-6.69-1.74-11.94-5.2-15.73c-3.49-3.79-8.32-5.69-14.51-5.69
	c-5.44,0-9.95,1.86-13.56,5.59c-3.59,3.73-5.4,8.38-5.4,13.94c0,9.09,9.35,17.56,28.06,25.4c4.93,2.02,8.72,3.6,11.37,4.74
	c17.95,8.08,30.21,16.78,36.78,26.06c6.56,9.29,9.85,21.84,9.85,37.63c0,19.46-6.57,35.54-19.71,48.24
	c-13.15,12.71-29.7,19.05-49.67,19.05c-20.09,0-36.3-6.69-48.62-20.1c-12.33-13.39-19.04-31.52-20.18-54.4L1638.02,308.53z"/>
<path class="st1" d="M1779.43,377.72v-165.3h-31.85V169.2h31.85v-67.48h48.53v67.48H1860v43.23h-32.04v165.3H1779.43z"/>
<path class="st0" d="M1466.56,327.22c-32.53,0-54.59-13.93-69.61-34.71l66.48,187.64l65.71-185.37
	C1512.79,315.89,1491.69,327.22,1466.56,327.22z"/>
<path class="st1" d="M1466.56,0c0,0-77.47,65.06-77.47,134.31s5.1,168.92,77.47,168.92c61.86,0,77.47-99.68,77.47-168.92
	S1466.56,0,1466.56,0z M1466.56,162.93c-15.95,0-28.87-19.33-28.87-43.19c0-23.86,12.92-43.18,28.87-43.18
	c15.95,0,28.86,19.32,28.86,43.18C1495.42,143.6,1482.51,162.93,1466.56,162.93z"/>
</svg>
