<?xml version="1.0" encoding="utf-8"?>
<!-- Generator: Adobe Illustrator 25.2.3, SVG Export Plug-In . SVG Version: 6.00 Build 0)  -->
<svg version="1.1" id="Laag_1" xmlns="http://www.w3.org/2000/svg" xmlns:xlink="http://www.w3.org/1999/xlink" x="0px" y="0px"
	 viewBox="0 0 250 250" style="enable-background:new 0 0 250 250;" xml:space="preserve">
<style type="text/css">
	.st0{fill:#D75959;}
	.st1{fill:#00A59B;}
</style>
<path class="st0" d="M126.16,169.33c-16.73,0-28.08-7.17-35.81-17.86l34.2,96.53l33.8-95.36
	C149.93,163.5,139.08,169.33,126.16,169.33z"/>
<path class="st1" d="M126.16,1c0,0-39.85,33.47-39.85,69.09s2.62,86.9,39.85,86.9c31.82,0,39.85-51.28,39.85-86.9S126.16,1,126.16,1
	z M126.16,84.81c-8.21,0-14.85-9.94-14.85-22.22s6.65-22.21,14.85-22.21S141,50.32,141,62.6S134.36,84.81,126.16,84.81z"/>
</svg>
